<svg width="28" height="28" viewBox="0 0 28 28" fill="none" xmlns="http://www.w3.org/2000/svg">
<path d="M13.7493 2.33789C7.44727 2.33789 2.29102 7.48268 2.29102 13.8191C2.29102 19.5483 6.48476 24.3035 11.9618 25.1629V17.1421H9.05143V13.8191H11.9618V11.2868C11.9618 8.41081 13.6691 6.82956 16.2931 6.82956C17.5421 6.82956 18.8483 7.04727 18.8483 7.04727V9.87747H17.4046C15.9837 9.87747 15.5368 10.7598 15.5368 11.665V13.8191H18.7223L18.2066 17.1421H15.5368V25.1629C18.2369 24.7365 20.6956 23.3588 22.4691 21.2786C24.2425 19.1984 25.2138 16.5527 25.2077 13.8191C25.2077 7.48268 20.0514 2.33789 13.7493 2.33789Z" fill="url(#paint0_linear_2875_21)"/>
<defs>
<linearGradient id="paint0_linear_2875_21" x1="14.8952" y1="4.5848" x2="5.72851" y2="24.064" gradientUnits="userSpaceOnUse">
<stop stop-color="#304E95"/>
<stop offset="1" stop-color="#556EA5"/>
</linearGradient>
</defs>
</svg>
