<svg width="23" height="23" viewBox="0 0 23 23" fill="none" xmlns="http://www.w3.org/2000/svg">
<path d="M22.1818 9.00633H21.2796V8.95985H11.1998V13.4398H17.5294C16.606 16.0476 14.1246 17.9197 11.1998 17.9197C7.48875 17.9197 4.47992 14.9109 4.47992 11.1998C4.47992 7.48875 7.48875 4.47992 11.1998 4.47992C12.9128 4.47992 14.4713 5.12615 15.6579 6.18173L18.8258 3.01387C16.8255 1.14966 14.1498 0 11.1998 0C5.01471 0 0 5.01471 0 11.1998C0 17.3849 5.01471 22.3996 11.1998 22.3996C17.3849 22.3996 22.3996 17.3849 22.3996 11.1998C22.3996 10.4489 22.3223 9.71583 22.1818 9.00633Z" fill="#FFC107"/>
<path d="M1.29297 5.98686L4.97267 8.68545C5.96833 6.22037 8.37965 4.47992 11.2014 4.47992C12.9144 4.47992 14.4729 5.12615 15.6595 6.18173L18.8274 3.01387C16.8271 1.14966 14.1515 0 11.2014 0C6.89959 0 3.16894 2.42868 1.29297 5.98686Z" fill="#FF3D00"/>
<path d="M11.1991 22.4003C14.0921 22.4003 16.7206 21.2932 18.7081 19.4928L15.2417 16.5596C14.0795 17.4435 12.6593 17.9215 11.1991 17.9204C8.28607 17.9204 5.8126 16.0629 4.88077 13.4707L1.22852 16.2847C3.08208 19.9117 6.84634 22.4003 11.1991 22.4003Z" fill="#4CAF50"/>
<path d="M22.1812 9.00742H21.279V8.96094H11.1992V13.4409H17.5288C17.0871 14.682 16.2914 15.7666 15.2401 16.5606L15.2418 16.5594L18.7081 19.4927C18.4629 19.7156 22.399 16.8008 22.399 11.2009C22.399 10.45 22.3217 9.71692 22.1812 9.00742Z" fill="#1976D2"/>
</svg>
